<svg xmlns="http://www.w3.org/2000/svg" viewBox="0 0 2823.92 1411.99"><defs><style>.cls-1{fill:#3a3c4c;}.cls-2{fill:none;stroke:#dac0b8;stroke-linecap:round;stroke-linejoin:round;stroke-width:2px;}</style></defs><title>lamp_firstpage-01</title><g id="Layer_4" data-name="Layer 4"><rect class="cls-1" x="0.15" y="0.15" width="2823.77" height="1411.85"/></g><g id="Layer_3" data-name="Layer 3"><line class="cls-2" x1="1411.86" y1="629.92" x2="1411.86"/></g><g id="Layer_2" data-name="Layer 2"><g id="LINE"><line class="cls-2" x1="1503.67" y1="745.59" x2="1503.71" y2="745.61"/></g><g id="LINE-2" data-name="LINE"><line class="cls-2" x1="1499.5" y1="745.15" x2="1499.55" y2="745.15"/></g><g id="LINE-3" data-name="LINE"><line class="cls-2" x1="1494.09" y1="710.92" x2="1494.2" y2="710.86"/></g><g id="LINE-4" data-name="LINE"><line class="cls-2" x1="1497.2" y1="709.72" x2="1496.89" y2="709.84"/></g><g id="LINE-5" data-name="LINE"><line class="cls-2" x1="1435.97" y1="644.91" x2="1435.48" y2="644.88"/></g><g id="LINE-6" data-name="LINE"><line class="cls-2" x1="1437.38" y1="645.26" x2="1436.92" y2="645.1"/></g><g id="LINE-7" data-name="LINE"><line class="cls-2" x1="1436.45" y1="644.98" x2="1435.97" y2="644.91"/></g><g id="LINE-8" data-name="LINE"><line class="cls-2" x1="1439.26" y1="674.19" x2="1439.29" y2="669.82"/></g><g id="LINE-9" data-name="LINE"><line class="cls-2" x1="1439.61" y1="691.69" x2="1439.46" y2="687.32"/></g><g id="LINE-10" data-name="LINE"><line class="cls-2" x1="1445.63" y1="698.93" x2="1442.45" y2="695.45"/></g><g id="LINE-11" data-name="LINE"><line class="cls-2" x1="1439.31" y1="646.71" x2="1438.99" y2="646.34"/></g><g id="LINE-12" data-name="LINE"><line class="cls-2" x1="1449.13" y1="702.09" x2="1445.63" y2="698.93"/></g><g id="LINE-13" data-name="LINE"><line class="cls-2" x1="1442.45" y1="695.45" x2="1439.61" y2="691.69"/></g><g id="LINE-14" data-name="LINE"><line class="cls-2" x1="1439.29" y1="669.82" x2="1439.35" y2="665.45"/></g><g id="LINE-15" data-name="LINE"><line class="cls-2" x1="1439.81" y1="652.33" x2="1440.05" y2="647.96"/></g><g id="LINE-16" data-name="LINE"><line class="cls-2" x1="1439.61" y1="656.7" x2="1439.81" y2="652.33"/></g><g id="LINE-17" data-name="LINE"><line class="cls-2" x1="1439.46" y1="661.07" x2="1439.61" y2="656.7"/></g><g id="LINE-18" data-name="LINE"><line class="cls-2" x1="1439.35" y1="665.45" x2="1439.46" y2="661.07"/></g><g id="LINE-19" data-name="LINE"><line class="cls-2" x1="1450.7" y1="703.25" x2="1449.13" y2="702.09"/></g><g id="LINE-20" data-name="LINE"><line class="cls-2" x1="1437.82" y1="645.47" x2="1437.38" y2="645.26"/></g><g id="LINE-21" data-name="LINE"><line class="cls-2" x1="1439.46" y1="687.32" x2="1439.35" y2="682.94"/></g><g id="LINE-22" data-name="LINE"><line class="cls-2" x1="1438.63" y1="646.02" x2="1438.24" y2="645.72"/></g><g id="LINE-23" data-name="LINE"><line class="cls-2" x1="1439.29" y1="678.57" x2="1439.26" y2="674.19"/></g><g id="LINE-24" data-name="LINE"><line class="cls-2" x1="1439.85" y1="647.52" x2="1439.6" y2="647.1"/></g><g id="LINE-25" data-name="LINE"><line class="cls-2" x1="1439.35" y1="682.94" x2="1439.29" y2="678.57"/></g><g id="LINE-26" data-name="LINE"><line class="cls-2" x1="1440.05" y1="647.96" x2="1439.85" y2="647.52"/></g><g id="LINE-27" data-name="LINE"><line class="cls-2" x1="1439.6" y1="647.1" x2="1439.31" y2="646.71"/></g><g id="LINE-28" data-name="LINE"><line class="cls-2" x1="1436.92" y1="645.1" x2="1436.45" y2="644.98"/></g><g id="LINE-29" data-name="LINE"><line class="cls-2" x1="1438.24" y1="645.72" x2="1437.82" y2="645.47"/></g><g id="LINE-30" data-name="LINE"><line class="cls-2" x1="1438.99" y1="646.34" x2="1438.63" y2="646.02"/></g><g id="LINE-31" data-name="LINE"><line class="cls-2" x1="1383.91" y1="652.33" x2="1384.1" y2="656.7"/></g><g id="LINE-32" data-name="LINE"><line class="cls-2" x1="1383.66" y1="647.96" x2="1383.91" y2="652.33"/></g><g id="LINE-33" data-name="LINE"><line class="cls-2" x1="1383.87" y1="647.52" x2="1383.66" y2="647.96"/></g><g id="LINE-34" data-name="LINE"><line class="cls-2" x1="1384.12" y1="647.1" x2="1383.87" y2="647.52"/></g><g id="LINE-35" data-name="LINE"><line class="cls-2" x1="1384.41" y1="646.71" x2="1384.12" y2="647.1"/></g><g id="LINE-36" data-name="LINE"><line class="cls-2" x1="1384.73" y1="646.34" x2="1384.41" y2="646.71"/></g><g id="LINE-37" data-name="LINE"><line class="cls-2" x1="1385.09" y1="646.02" x2="1384.73" y2="646.34"/></g><g id="LINE-38" data-name="LINE"><line class="cls-2" x1="1385.48" y1="645.72" x2="1385.09" y2="646.02"/></g><g id="LINE-39" data-name="LINE"><line class="cls-2" x1="1385.9" y1="645.47" x2="1385.48" y2="645.72"/></g><g id="LINE-40" data-name="LINE"><line class="cls-2" x1="1386.34" y1="645.26" x2="1385.9" y2="645.47"/></g><g id="LINE-41" data-name="LINE"><line class="cls-2" x1="1386.79" y1="645.1" x2="1386.34" y2="645.26"/></g><g id="LINE-42" data-name="LINE"><line class="cls-2" x1="1387.27" y1="644.98" x2="1386.79" y2="645.1"/></g><g id="LINE-43" data-name="LINE"><line class="cls-2" x1="1387.75" y1="644.91" x2="1387.27" y2="644.98"/></g><g id="LINE-44" data-name="LINE"><line class="cls-2" x1="1388.24" y1="644.88" x2="1387.75" y2="644.91"/></g><g id="LINE-45" data-name="LINE"><line class="cls-2" x1="1374.58" y1="702.09" x2="1373.02" y2="703.25"/></g><g id="LINE-46" data-name="LINE"><line class="cls-2" x1="1378.08" y1="698.93" x2="1374.58" y2="702.09"/></g><g id="LINE-47" data-name="LINE"><line class="cls-2" x1="1381.26" y1="695.45" x2="1378.08" y2="698.93"/></g><g id="LINE-48" data-name="LINE"><line class="cls-2" x1="1384.1" y1="691.69" x2="1381.26" y2="695.45"/></g><g id="LINE-49" data-name="LINE"><line class="cls-2" x1="1384.26" y1="687.32" x2="1384.1" y2="691.69"/></g><g id="LINE-50" data-name="LINE"><line class="cls-2" x1="1384.36" y1="682.94" x2="1384.26" y2="687.32"/></g><g id="LINE-51" data-name="LINE"><line class="cls-2" x1="1384.43" y1="678.57" x2="1384.36" y2="682.94"/></g><g id="LINE-52" data-name="LINE"><line class="cls-2" x1="1384.45" y1="674.19" x2="1384.43" y2="678.57"/></g><g id="LINE-53" data-name="LINE"><line class="cls-2" x1="1384.43" y1="669.82" x2="1384.45" y2="674.19"/></g><g id="LINE-54" data-name="LINE"><line class="cls-2" x1="1384.36" y1="665.45" x2="1384.43" y2="669.82"/></g><g id="LINE-55" data-name="LINE"><line class="cls-2" x1="1384.26" y1="661.07" x2="1384.36" y2="665.45"/></g><g id="LINE-56" data-name="LINE"><line class="cls-2" x1="1384.1" y1="656.7" x2="1384.26" y2="661.07"/></g><g id="LINE-57" data-name="LINE"><line class="cls-2" x1="1457.26" y1="842.57" x2="1458.18" y2="837.38"/></g><g id="LINE-58" data-name="LINE"><line class="cls-2" x1="1458.18" y1="837.38" x2="1458.56" y2="834.37"/></g><g id="LINE-59" data-name="LINE"><line class="cls-2" x1="1456.08" y1="847.69" x2="1457.26" y2="842.57"/></g><g id="LINE-60" data-name="LINE"><line class="cls-2" x1="1454.65" y1="852.76" x2="1456.08" y2="847.69"/></g><g id="LINE-61" data-name="LINE"><line class="cls-2" x1="1365.36" y1="834.37" x2="1365.74" y2="837.38"/></g><g id="LINE-62" data-name="LINE"><line class="cls-2" x1="1367.84" y1="847.69" x2="1369.27" y2="852.76"/></g><g id="LINE-63" data-name="LINE"><line class="cls-2" x1="1366.66" y1="842.57" x2="1367.84" y2="847.69"/></g><g id="LINE-64" data-name="LINE"><line class="cls-2" x1="1365.74" y1="837.38" x2="1366.66" y2="842.57"/></g><g id="LINE-65" data-name="LINE"><line class="cls-2" x1="1536.72" y1="752.43" x2="1525.4" y2="749.44"/></g><g id="LINE-66" data-name="LINE"><line class="cls-2" x1="1309.98" y1="747.09" x2="1298.52" y2="749.44"/></g><g id="LINE-67" data-name="LINE"><line class="cls-2" x1="1321.57" y1="745.4" x2="1309.98" y2="747.09"/></g><g id="LINE-68" data-name="LINE"><line class="cls-2" x1="1333.23" y1="744.36" x2="1321.57" y2="745.4"/></g><g id="LINE-69" data-name="LINE"><line class="cls-2" x1="1525.4" y1="749.44" x2="1513.94" y2="747.09"/></g><g id="LINE-70" data-name="LINE"><line class="cls-2" x1="1547.85" y1="756.05" x2="1536.72" y2="752.43"/></g><g id="LINE-71" data-name="LINE"><line class="cls-2" x1="1558.76" y1="760.3" x2="1547.85" y2="756.05"/></g><g id="LINE-72" data-name="LINE"><line class="cls-2" x1="1569.41" y1="765.16" x2="1558.76" y2="760.3"/></g><g id="LINE-73" data-name="LINE"><line class="cls-2" x1="1579.76" y1="770.61" x2="1569.41" y2="765.16"/></g><g id="LINE-74" data-name="LINE"><line class="cls-2" x1="1589.8" y1="776.64" x2="1579.76" y2="770.61"/></g><g id="LINE-75" data-name="LINE"><line class="cls-2" x1="1599.47" y1="783.23" x2="1589.8" y2="776.64"/></g><g id="LINE-76" data-name="LINE"><line class="cls-2" x1="1608.76" y1="790.35" x2="1599.47" y2="783.23"/></g><g id="LINE-77" data-name="LINE"><line class="cls-2" x1="1608.28" y1="790.98" x2="1608.76" y2="790.35"/></g><g id="LINE-78" data-name="LINE"><line class="cls-2" x1="1244.16" y1="770.61" x2="1234.12" y2="776.64"/></g><g id="LINE-79" data-name="LINE"><line class="cls-2" x1="1254.51" y1="765.16" x2="1244.16" y2="770.61"/></g><g id="LINE-80" data-name="LINE"><line class="cls-2" x1="1490.7" y1="744.36" x2="1479" y2="743.99"/></g><g id="LINE-81" data-name="LINE"><line class="cls-2" x1="1265.16" y1="760.3" x2="1254.51" y2="765.16"/></g><g id="LINE-82" data-name="LINE"><line class="cls-2" x1="1276.07" y1="756.05" x2="1265.16" y2="760.3"/></g><g id="LINE-83" data-name="LINE"><line class="cls-2" x1="1287.2" y1="752.43" x2="1276.07" y2="756.05"/></g><g id="LINE-84" data-name="LINE"><line class="cls-2" x1="1344.92" y1="743.99" x2="1333.23" y2="744.36"/></g><g id="LINE-85" data-name="LINE"><line class="cls-2" x1="1298.52" y1="749.44" x2="1287.2" y2="752.43"/></g><g id="LINE-86" data-name="LINE"><line class="cls-2" x1="1215.16" y1="790.35" x2="1215.64" y2="790.98"/></g><g id="LINE-87" data-name="LINE"><line class="cls-2" x1="1224.45" y1="783.23" x2="1215.16" y2="790.35"/></g><g id="LINE-88" data-name="LINE"><line class="cls-2" x1="1234.12" y1="776.64" x2="1224.45" y2="783.23"/></g><g id="LINE-89" data-name="LINE"><line class="cls-2" x1="1497.48" y1="709.67" x2="1503.19" y2="707.65"/></g><g id="LINE-90" data-name="LINE"><line class="cls-2" x1="1503.19" y1="707.65" x2="1511.29" y2="705.65"/></g><g id="LINE-91" data-name="LINE"><line class="cls-2" x1="1473.88" y1="723.12" x2="1480.61" y2="718.2"/></g><g id="LINE-92" data-name="LINE"><line class="cls-2" x1="1467.66" y1="728.67" x2="1473.88" y2="723.12"/></g><g id="LINE-93" data-name="LINE"><line class="cls-2" x1="1462.01" y1="734.79" x2="1467.66" y2="728.67"/></g><g id="LINE-94" data-name="LINE"><line class="cls-2" x1="1511.29" y1="705.65" x2="1519.53" y2="704.44"/></g><g id="LINE-95" data-name="LINE"><line class="cls-2" x1="1487.78" y1="713.96" x2="1493.55" y2="711.26"/></g><g id="LINE-96" data-name="LINE"><line class="cls-2" x1="1480.61" y1="718.2" x2="1487.78" y2="713.96"/></g><g id="LINE-97" data-name="LINE"><line class="cls-2" x1="1519.53" y1="704.44" x2="1527.86" y2="704.03"/></g><g id="LINE-98" data-name="LINE"><line class="cls-2" x1="1456.98" y1="741.44" x2="1462.01" y2="734.79"/></g><g id="LINE-99" data-name="LINE"><line class="cls-2" x1="1527.86" y1="704.03" x2="1527.82" y2="703.25"/></g><g id="LINE-100" data-name="LINE"><line class="cls-2" x1="1455.41" y1="743.99" x2="1456.98" y2="741.44"/></g><g id="LINE-101" data-name="LINE"><line class="cls-2" x1="1361.7" y1="734.79" x2="1364.7" y2="738.75"/></g><g id="LINE-102" data-name="LINE"><line class="cls-2" x1="1356.05" y1="728.67" x2="1361.7" y2="734.79"/></g><g id="LINE-103" data-name="LINE"><line class="cls-2" x1="1349.83" y1="723.12" x2="1356.05" y2="728.67"/></g><g id="LINE-104" data-name="LINE"><line class="cls-2" x1="1343.11" y1="718.2" x2="1349.83" y2="723.12"/></g><g id="LINE-105" data-name="LINE"><line class="cls-2" x1="1335.93" y1="713.96" x2="1343.11" y2="718.2"/></g><g id="LINE-106" data-name="LINE"><line class="cls-2" x1="1328.38" y1="710.43" x2="1335.93" y2="713.96"/></g><g id="LINE-107" data-name="LINE"><line class="cls-2" x1="1320.52" y1="707.65" x2="1328.38" y2="710.43"/></g><g id="LINE-108" data-name="LINE"><line class="cls-2" x1="1312.43" y1="705.65" x2="1320.52" y2="707.65"/></g><g id="LINE-109" data-name="LINE"><line class="cls-2" x1="1304.18" y1="704.44" x2="1312.43" y2="705.65"/></g><g id="LINE-110" data-name="LINE"><line class="cls-2" x1="1295.86" y1="704.03" x2="1304.18" y2="704.44"/></g><g id="LINE-111" data-name="LINE"><line class="cls-2" x1="1295.9" y1="703.25" x2="1295.86" y2="704.03"/></g><g id="LINE-112" data-name="LINE"><line class="cls-2" x1="1415.18" y1="629.92" x2="1416.56" y2="629.92"/></g><g id="LINE-113" data-name="LINE"><line class="cls-2" x1="1420.22" y1="632.28" x2="1420.52" y2="632.28"/></g><g id="LINE-114" data-name="LINE"><line class="cls-2" x1="1405.21" y1="629.92" x2="1403.95" y2="630.71"/></g><g id="LINE-115" data-name="LINE"><line class="cls-2" x1="1403.95" y1="630.71" x2="1403.2" y2="632.28"/></g><g id="LINE-116" data-name="LINE"><line class="cls-2" x1="1420.52" y1="632.28" x2="1419.76" y2="630.71"/></g><g id="LINE-117" data-name="LINE"><line class="cls-2" x1="1410.28" y1="629.92" x2="1410.14" y2="629.92"/></g><g id="LINE-118" data-name="LINE"><line class="cls-2" x1="1413.58" y1="629.92" x2="1415.18" y2="629.92"/></g><g id="LINE-119" data-name="LINE"><line class="cls-2" x1="1407.16" y1="629.92" x2="1408.54" y2="629.92"/></g><g id="LINE-120" data-name="LINE"><line class="cls-2" x1="1418.27" y1="629.92" x2="1417.61" y2="629.92"/></g><g id="LINE-121" data-name="LINE"><line class="cls-2" x1="1416.56" y1="629.92" x2="1417.61" y2="629.92"/></g><g id="LINE-122" data-name="LINE"><line class="cls-2" x1="1405.44" y1="629.92" x2="1406.1" y2="629.92"/></g><g id="LINE-123" data-name="LINE"><line class="cls-2" x1="1407.16" y1="629.92" x2="1406.1" y2="629.92"/></g><g id="LINE-124" data-name="LINE"><line class="cls-2" x1="1420.52" y1="644.88" x2="1420.52" y2="632.28"/></g><g id="LINE-125" data-name="LINE"><line class="cls-2" x1="1418.5" y1="629.92" x2="1418.27" y2="629.92"/></g><g id="LINE-126" data-name="LINE"><line class="cls-2" x1="1405.21" y1="629.92" x2="1405.44" y2="629.92"/></g><g id="LINE-127" data-name="LINE"><line class="cls-2" x1="1410.14" y1="629.92" x2="1408.54" y2="629.92"/></g><g id="LINE-128" data-name="LINE"><line class="cls-2" x1="1403.2" y1="644.88" x2="1403.2" y2="632.28"/></g><g id="LINE-129" data-name="LINE"><line class="cls-2" x1="1413.58" y1="629.92" x2="1413.43" y2="629.92"/></g><g id="LINE-130" data-name="LINE"><line class="cls-2" x1="1419.76" y1="630.71" x2="1418.5" y2="629.92"/></g><g id="LINE-131" data-name="LINE"><line class="cls-2" x1="1489.24" y1="817.45" x2="1486.76" y2="812.18"/></g><g id="LINE-132" data-name="LINE"><line class="cls-2" x1="1472.68" y1="793.76" x2="1469.43" y2="790.98"/></g><g id="LINE-133" data-name="LINE"><line class="cls-2" x1="1493.93" y1="834.23" x2="1492.84" y2="828.51"/></g><g id="LINE-134" data-name="LINE"><line class="cls-2" x1="1491.28" y1="822.9" x2="1489.24" y2="817.45"/></g><g id="LINE-135" data-name="LINE"><line class="cls-2" x1="1492.84" y1="828.51" x2="1491.28" y2="822.9"/></g><g id="LINE-136" data-name="LINE"><line class="cls-2" x1="1493.16" y1="834.37" x2="1493.93" y2="834.23"/></g><g id="LINE-137" data-name="LINE"><line class="cls-2" x1="1480.5" y1="802.38" x2="1476.77" y2="797.9"/></g><g id="LINE-138" data-name="LINE"><line class="cls-2" x1="1486.76" y1="812.18" x2="1483.84" y2="807.15"/></g><g id="LINE-139" data-name="LINE"><line class="cls-2" x1="1337.16" y1="812.18" x2="1334.68" y2="817.45"/></g><g id="LINE-140" data-name="LINE"><line class="cls-2" x1="1483.84" y1="807.15" x2="1480.5" y2="802.38"/></g><g id="LINE-141" data-name="LINE"><line class="cls-2" x1="1331.08" y1="828.51" x2="1329.99" y2="834.23"/></g><g id="LINE-142" data-name="LINE"><line class="cls-2" x1="1332.64" y1="822.9" x2="1331.08" y2="828.51"/></g><g id="LINE-143" data-name="LINE"><line class="cls-2" x1="1334.68" y1="817.45" x2="1332.64" y2="822.9"/></g><g id="LINE-144" data-name="LINE"><line class="cls-2" x1="1340.09" y1="807.15" x2="1337.16" y2="812.18"/></g><g id="LINE-145" data-name="LINE"><line class="cls-2" x1="1343.42" y1="802.38" x2="1340.09" y2="807.15"/></g><g id="LINE-146" data-name="LINE"><line class="cls-2" x1="1347.15" y1="797.9" x2="1343.42" y2="802.38"/></g><g id="LINE-147" data-name="LINE"><line class="cls-2" x1="1351.24" y1="793.76" x2="1347.15" y2="797.9"/></g><g id="LINE-148" data-name="LINE"><line class="cls-2" x1="1354.49" y1="790.98" x2="1351.24" y2="793.76"/></g><g id="LINE-149" data-name="LINE"><line class="cls-2" x1="1329.99" y1="834.23" x2="1330.76" y2="834.37"/></g><g id="LINE-150" data-name="LINE"><line class="cls-2" x1="1499.5" y1="745.15" x2="1490.7" y2="744.36"/></g><g id="LINE-151" data-name="LINE"><line class="cls-2" x1="1513.94" y1="747.09" x2="1503.71" y2="745.61"/></g><g id="LINE-152" data-name="LINE"><line class="cls-2" x1="1476.77" y1="797.9" x2="1475.77" y2="796.89"/></g><g id="LINE-153" data-name="LINE"><line class="cls-2" x1="1475.77" y1="796.89" x2="1475.73" y2="796.85"/></g><g id="LINE-154" data-name="LINE"><line class="cls-2" x1="1472.79" y1="793.87" x2="1472.75" y2="793.83"/></g><g id="LINE-155" data-name="LINE"><line class="cls-2" x1="1472.75" y1="793.83" x2="1472.68" y2="793.76"/></g><g id="LINE-156" data-name="LINE"><line class="cls-2" x1="1469.43" y1="790.98" x2="1476.41" y2="790.98"/></g><g id="LINE-157" data-name="LINE"><line class="cls-2" x1="1375.67" y1="790.98" x2="1380.43" y2="790.98"/></g><g id="LINE-158" data-name="LINE"><line class="cls-2" x1="1476.41" y1="790.98" x2="1482.53" y2="790.98"/></g><g id="LINE-159" data-name="LINE"><line class="cls-2" x1="1496.89" y1="709.84" x2="1494.2" y2="710.86"/></g><g id="LINE-160" data-name="LINE"><line class="cls-2" x1="1420.52" y1="644.88" x2="1403.2" y2="644.88"/></g><g id="LINE-161" data-name="LINE"><line class="cls-2" x1="1420.52" y1="644.88" x2="1435.48" y2="644.88"/></g><g id="LINE-162" data-name="LINE"><line class="cls-2" x1="1388.24" y1="644.88" x2="1403.2" y2="644.88"/></g><g id="LINE-163" data-name="LINE"><line class="cls-2" x1="1384.1" y1="691.69" x2="1439.61" y2="691.69"/></g><g id="LINE-164" data-name="LINE"><line class="cls-2" x1="1369.27" y1="852.76" x2="1454.65" y2="852.76"/></g><g id="LINE-165" data-name="LINE"><line class="cls-2" x1="1479" y1="743.99" x2="1455.41" y2="743.99"/></g><g id="LINE-166" data-name="LINE"><line class="cls-2" x1="1364.81" y1="743.99" x2="1344.92" y2="743.99"/></g><g id="LINE-167" data-name="LINE"><line class="cls-2" x1="1354.49" y1="790.98" x2="1215.64" y2="790.98"/></g><g id="LINE-168" data-name="LINE"><line class="cls-2" x1="1354.49" y1="790.98" x2="1375.67" y2="790.98"/></g><g id="LINE-169" data-name="LINE"><line class="cls-2" x1="1364.81" y1="743.99" x2="1455.41" y2="743.99"/></g><g id="LINE-170" data-name="LINE"><line class="cls-2" x1="1608.28" y1="790.98" x2="1482.53" y2="790.98"/></g><g id="LINE-171" data-name="LINE"><line class="cls-2" x1="1380.43" y1="790.98" x2="1469.43" y2="790.98"/></g><g id="LINE-172" data-name="LINE"><line class="cls-2" x1="1450.7" y1="703.25" x2="1373.02" y2="703.25"/></g><g id="LINE-173" data-name="LINE"><line class="cls-2" x1="1295.9" y1="703.25" x2="1373.02" y2="703.25"/></g><g id="LINE-174" data-name="LINE"><line class="cls-2" x1="1450.7" y1="703.25" x2="1527.82" y2="703.25"/></g><g id="LINE-175" data-name="LINE"><line class="cls-2" x1="1411.86" y1="629.92" x2="1413.43" y2="629.92"/></g><g id="LINE-176" data-name="LINE"><line class="cls-2" x1="1410.28" x2="1413.43"/></g><g id="LINE-177" data-name="LINE"><line class="cls-2" x1="1410.28" y1="629.92" x2="1411.86" y2="629.92"/></g><g id="LINE-178" data-name="LINE"><line class="cls-2" x1="1365.36" y1="834.37" x2="1330.76" y2="834.37"/></g><g id="LINE-179" data-name="LINE"><line class="cls-2" x1="1458.56" y1="834.37" x2="1365.36" y2="834.37"/></g><g id="LINE-180" data-name="LINE"><line class="cls-2" x1="1458.56" y1="834.37" x2="1493.16" y2="834.37"/></g><g id="LINE-181" data-name="LINE"><line class="cls-2" x1="1472.68" y1="793.76" x2="1476.77" y2="797.9"/></g><g id="LINE-182" data-name="LINE"><line class="cls-2" x1="1469.43" y1="790.98" x2="1472.68" y2="793.76"/></g><g id="LINE-183" data-name="LINE"><line class="cls-2" x1="1490.7" y1="744.36" x2="1502.35" y2="745.4"/></g><g id="LINE-184" data-name="LINE"><line class="cls-2" x1="1479" y1="743.99" x2="1490.7" y2="744.36"/></g><g id="LINE-185" data-name="LINE"><line class="cls-2" x1="1502.35" y1="745.4" x2="1513.94" y2="747.09"/></g><g id="LINE-186" data-name="LINE"><line class="cls-2" x1="1366.94" y1="741.44" x2="1361.91" y2="734.79"/></g><g id="LINE-187" data-name="LINE"><line class="cls-2" x1="1368.51" y1="743.99" x2="1366.94" y2="741.44"/></g></g></svg>